<svg width="12" height="12" viewBox="0 0 12 12" fill="none" xmlns="http://www.w3.org/2000/svg">
<path d="M4.2 8L2.4192 9.7808C2.221 9.97895 1.9685 10.1139 1.69362 10.1686C1.41874 10.2232 1.13382 10.1952 0.874891 10.0879C0.615959 9.98067 0.394639 9.79905 0.238912 9.56604C0.0831855 9.33302 4.41853e-05 9.05906 0 8.7788V8L0.8142 3.9296C0.922946 3.38553 1.21684 2.89595 1.64587 2.54415C2.0749 2.19235 2.61257 2.00006 3.1674 2L4.2 2.9H7.5L8.8326 2C9.38743 2.00006 9.9251 2.19235 10.3541 2.54415C10.7832 2.89595 11.0771 3.38553 11.1858 3.9296L12 8V8.7782C12 9.05846 11.9168 9.33242 11.7611 9.56544C11.6054 9.79845 11.384 9.98006 11.1251 10.0873C10.8662 10.1946 10.5813 10.2226 10.3064 10.168C10.0315 10.1133 9.779 9.97835 9.5808 9.7802L7.8 8H4.2Z" fill="#A19DAA"/>
</svg>
