<svg width="32" height="31" viewBox="0 0 32 31" fill="none" xmlns="http://www.w3.org/2000/svg">
<g filter="url(#filter0_d_8818_7832)">
<path d="M21.9447 8.54697C20.5376 7.15101 18.2563 7.15101 16.8492 8.54697L16 9.38952L15.1508 8.54697C13.7437 7.15101 11.4624 7.15101 10.0553 8.54697C8.64823 9.94294 8.64823 12.2063 10.0553 13.6022L16 19.5L21.9447 13.6022C23.3518 12.2063 23.3518 9.94294 21.9447 8.54697Z" fill="white"/>
<path d="M21.9447 8.54697C20.5376 7.15101 18.2563 7.15101 16.8492 8.54697L16 9.38952L15.1508 8.54697C13.7437 7.15101 11.4624 7.15101 10.0553 8.54697C8.64823 9.94294 8.64823 12.2063 10.0553 13.6022L16 19.5L21.9447 13.6022C23.3518 12.2063 23.3518 9.94294 21.9447 8.54697Z" stroke="white" stroke-width="1.25" stroke-linecap="square"/>
</g>
<defs>
<filter id="filter0_d_8818_7832" x="0.375" y="0.875" width="31.25" height="29.5054" filterUnits="userSpaceOnUse" color-interpolation-filters="sRGB">
<feFlood flood-opacity="0" result="BackgroundImageFix"/>
<feColorMatrix in="SourceAlpha" type="matrix" values="0 0 0 0 0 0 0 0 0 0 0 0 0 0 0 0 0 0 127 0" result="hardAlpha"/>
<feOffset dy="2"/>
<feGaussianBlur stdDeviation="4"/>
<feComposite in2="hardAlpha" operator="out"/>
<feColorMatrix type="matrix" values="0 0 0 0 1 0 0 0 0 1 0 0 0 0 1 0 0 0 0.4 0"/>
<feBlend mode="normal" in2="BackgroundImageFix" result="effect1_dropShadow_8818_7832"/>
<feBlend mode="normal" in="SourceGraphic" in2="effect1_dropShadow_8818_7832" result="shape"/>
</filter>
</defs>
</svg>
