<svg width="48" height="48" viewBox="0 0 48 48" fill="none" xmlns="http://www.w3.org/2000/svg">
<rect width="48" height="48" rx="24" fill="#151417"/>
<g clip-path="url(#clip0_8800_7622)">
<path d="M31.3026 17.3629C33.685 20.8656 34.8615 24.8166 34.4217 29.3651C34.4199 29.3844 34.4098 29.402 34.394 29.4136C32.5899 30.7384 30.842 31.5423 29.1185 32.0755C29.1051 32.0796 29.0908 32.0793 29.0775 32.0748C29.0642 32.0704 29.0526 32.0618 29.0444 32.0504C28.6463 31.4964 28.2845 30.9124 27.9676 30.2991C27.9494 30.2629 27.966 30.2194 28.0034 30.2052C28.578 29.9887 29.1243 29.7293 29.6499 29.4221C29.6913 29.3978 29.6939 29.3385 29.6557 29.31C29.5441 29.2272 29.4336 29.1402 29.3279 29.0532C29.3081 29.0371 29.2815 29.0339 29.2591 29.0447C25.8473 30.6202 22.1099 30.6202 18.6578 29.0447C18.6354 29.0347 18.6087 29.0381 18.5895 29.054C18.484 29.141 18.3733 29.2272 18.2628 29.31C18.2245 29.3385 18.2277 29.3978 18.2694 29.4221C18.7949 29.7235 19.3412 29.9887 19.915 30.2063C19.9522 30.2205 19.9698 30.2629 19.9514 30.2991C19.6413 30.9132 19.2795 31.4972 18.874 32.0512C18.8563 32.0736 18.8273 32.0839 18.7999 32.0755C17.0846 31.5423 15.3367 30.7384 13.5326 29.4136C13.5176 29.402 13.5068 29.3836 13.5052 29.3643C13.1376 25.4299 13.8867 21.4462 16.6214 17.3621C16.6279 17.3513 16.638 17.3428 16.6496 17.3378C17.9951 16.7203 19.4367 16.2659 20.9434 16.0065C20.9708 16.0023 20.9982 16.0149 21.0124 16.0392C21.1986 16.3688 21.4114 16.7915 21.5554 17.1369C23.1435 16.8943 24.7565 16.8943 26.3778 17.1369C26.5218 16.7988 26.7272 16.3688 26.9126 16.0392C26.9192 16.0271 26.9294 16.0175 26.9418 16.0116C26.9542 16.0058 26.9682 16.004 26.9817 16.0065C28.4891 16.2667 29.9307 16.7211 31.2752 17.3378C31.2871 17.3428 31.2968 17.3513 31.3026 17.3629ZM22.3628 24.8435C22.3794 23.6804 21.5314 22.718 20.4669 22.718C19.4111 22.718 18.5713 23.672 18.5713 24.8435C18.5713 26.0148 19.4277 26.9688 20.4669 26.9688C21.5229 26.9688 22.3628 26.0148 22.3628 24.8435ZM29.3719 24.8435C29.3885 23.6804 28.5405 22.718 27.4763 22.718C26.4203 22.718 25.5805 23.672 25.5805 24.8435C25.5805 26.0148 26.4369 26.9688 27.4763 26.9688C28.5405 26.9688 29.3719 26.0148 29.3719 24.8435Z" fill="white"/>
</g>
<defs>
<clipPath id="clip0_8800_7622">
<rect width="22" height="16.0864" fill="white" transform="translate(13 16)"/>
</clipPath>
</defs>
</svg>
