<svg width="48" height="48" viewBox="0 0 48 48" fill="none" xmlns="http://www.w3.org/2000/svg">
<rect x="-0.00012207" width="48" height="48" rx="24" fill="#151417"/>
<path d="M24.0057 15.8011C26.6792 15.8011 26.9958 15.8129 28.0472 15.8597C29.0243 15.9027 29.552 16.0668 29.9037 16.2036C30.3688 16.3833 30.705 16.6021 31.0528 16.9498C31.4046 17.3014 31.6196 17.6335 31.7994 18.0985C31.9362 18.4501 32.1003 18.9814 32.1433 19.9543C32.1902 21.0092 32.202 21.3257 32.202 23.9941C32.202 26.6665 32.1902 26.983 32.1433 28.034C32.1003 29.0107 31.9362 29.5382 31.7994 29.8898C31.6196 30.3548 31.4007 30.6908 31.0528 31.0385C30.7011 31.3901 30.3688 31.605 29.9037 31.7847C29.552 31.9215 29.0204 32.0856 28.0472 32.1285C26.9919 32.1754 26.6753 32.1871 24.0057 32.1871C21.3323 32.1871 21.0157 32.1754 19.9643 32.1285C18.9872 32.0856 18.4595 31.9215 18.1078 31.7847C17.6426 31.605 17.3065 31.3862 16.9586 31.0385C16.6069 30.6869 16.3919 30.3548 16.2121 29.8898C16.0753 29.5382 15.9112 29.0068 15.8682 28.034C15.8213 26.9791 15.8095 26.6626 15.8095 23.9941C15.8095 21.3217 15.8213 21.0053 15.8682 19.9543C15.9112 18.9775 16.0753 18.4501 16.2121 18.0985C16.3919 17.6335 16.6108 17.2975 16.9586 16.9498C17.3104 16.5982 17.6426 16.3833 18.1078 16.2036C18.4595 16.0668 18.9911 15.9027 19.9643 15.8597C21.0157 15.8129 21.3323 15.8011 24.0057 15.8011ZM24.0057 14C21.2893 14 20.9493 14.0117 19.8822 14.0586C18.8191 14.1055 18.0882 14.2774 17.455 14.5235C16.7945 14.7814 16.2356 15.1213 15.6806 15.68C15.1216 16.2348 14.7816 16.7935 14.5236 17.4499C14.2774 18.0867 14.1054 18.8134 14.0585 19.8761C14.0116 20.9467 13.9999 21.2866 13.9999 24.002C13.9999 26.7173 14.0116 27.0572 14.0585 28.1239C14.1054 29.1866 14.2774 29.9172 14.5236 30.5501C14.7816 31.2104 15.1216 31.7691 15.6806 32.3239C16.2356 32.8787 16.7945 33.2225 17.4511 33.4765C18.0882 33.7226 18.8152 33.8945 19.8783 33.9414C20.9454 33.9883 21.2854 34 24.0018 34C26.7183 34 27.0583 33.9883 28.1253 33.9414C29.1885 33.8945 29.9194 33.7226 30.5525 33.4765C31.2092 33.2225 31.7681 32.8787 32.3231 32.3239C32.8781 31.7691 33.2221 31.2104 33.4761 30.554C33.7224 29.9172 33.8943 29.1905 33.9412 28.1278C33.9882 27.0611 33.9999 26.7212 33.9999 24.0059C33.9999 21.2905 33.9882 20.9506 33.9412 19.884C33.8943 18.8213 33.7224 18.0906 33.4761 17.4577C33.2299 16.7935 32.8899 16.2348 32.3309 15.68C31.7759 15.1252 31.217 14.7814 30.5604 14.5274C29.9233 14.2813 29.1963 14.1094 28.1332 14.0625C27.0622 14.0117 26.7222 14 24.0057 14Z" fill="white"/>
<path d="M24.0068 18.8643C21.1692 18.8643 18.8671 21.1655 18.8671 24.002C18.8671 26.8385 21.1692 29.1397 24.0068 29.1397C26.8444 29.1397 29.1465 26.8385 29.1465 24.002C29.1465 21.1655 26.8444 18.8643 24.0068 18.8643ZM24.0068 27.3347C22.1659 27.3347 20.6728 25.8422 20.6728 24.002C20.6728 22.1618 22.1659 20.6693 24.0068 20.6693C25.8477 20.6693 27.3408 22.1618 27.3408 24.002C27.3408 25.8422 25.8477 27.3347 24.0068 27.3347Z" fill="white"/>
<path d="M30.5472 18.6609C30.5472 19.3251 30.0081 19.8603 29.3478 19.8603C28.6836 19.8603 28.1483 19.3212 28.1483 18.6609C28.1483 17.9967 28.6875 17.4614 29.3478 17.4614C30.0081 17.4614 30.5472 18.0006 30.5472 18.6609Z" fill="white"/>
</svg>
