<svg width="48" height="48" viewBox="0 0 48 48" fill="none" xmlns="http://www.w3.org/2000/svg">
<rect x="-9.15527e-05" width="48" height="48" rx="24" fill="#151417"/>
<path d="M24.4243 30.5923L20.4904 30.5204C19.2166 30.4954 17.9397 30.5454 16.691 30.286C14.7913 29.8986 14.6567 27.9988 14.5159 26.4052C14.3219 24.1649 14.397 21.8839 14.7632 19.6622C14.9699 18.4157 15.7834 17.6718 17.0415 17.5909C21.2884 17.2971 25.5636 17.3319 29.8011 17.469C30.2486 17.4815 30.6993 17.5502 31.1405 17.6284C33.3189 18.0096 33.372 20.1625 33.5132 21.9748C33.654 23.8058 33.5946 25.6462 33.3254 27.4648C33.1095 28.9705 32.6963 30.2332 30.9528 30.3551C28.7682 30.5145 26.6338 30.6428 24.4431 30.602C24.4432 30.5923 24.4306 30.5923 24.4243 30.5923ZM22.1115 26.7802C23.7578 25.8365 25.3726 24.9085 27.0095 23.9712C25.3601 23.0275 23.7484 22.0995 22.1115 21.1621V26.7802Z" fill="white"/>
</svg>
